<?xml version="1.0" standalone="no"?>
<!DOCTYPE svg PUBLIC "-//W3C//DTD SVG 20010904//EN"
 "http://www.w3.org/TR/2001/REC-SVG-20010904/DTD/svg10.dtd">
<svg version="1.0" xmlns="http://www.w3.org/2000/svg"
 width="512.000000pt" height="512.000000pt" viewBox="0 0 512.000000 512.000000"
 preserveAspectRatio="xMidYMid meet">
<metadata>
Created by potrace 1.11, written by Peter Selinger 2001-2013
</metadata>
<g transform="translate(0.000000,512.000000) scale(0.100000,-0.100000)"
fill="#000000" stroke="none">
<path d="M2955 4469 c-12 -6 -26 -18 -32 -28 -6 -9 -77 -247 -158 -527 -80
-280 -151 -522 -156 -539 -5 -16 -50 -172 -100 -345 -179 -622 -307 -1067
-524 -1815 -59 -203 -111 -385 -115 -403 -16 -65 8 -104 79 -125 148 -46 168
-50 202 -38 44 14 51 27 87 152 17 57 78 271 137 474 58 204 111 384 116 400
5 17 30 102 55 190 47 166 136 474 231 800 30 105 68 235 83 290 16 55 56 195
90 310 34 116 67 233 75 260 8 28 37 129 65 225 169 581 173 597 158 627 -16
34 -60 56 -163 83 -89 22 -101 23 -130 9z"/>
<path d="M1363 3944 c-15 -6 -328 -313 -695 -680 l-667 -669 4 -39 c3 -34 17
-52 117 -153 791 -794 1232 -1229 1250 -1234 44 -10 68 4 157 93 93 93 108
119 91 162 -5 15 -259 276 -564 581 l-555 555 559 560 c308 308 561 568 562
577 0 10 2 25 3 33 2 26 -11 43 -100 132 -91 90 -115 103 -162 82z"/>
<path d="M3704 3953 c-22 -4 -188 -161 -203 -192 -4 -9 -7 -23 -6 -31 1 -8 3
-23 3 -33 1 -9 254 -269 562 -577 l560 -560 -549 -548 c-302 -302 -556 -560
-566 -575 -29 -45 -13 -77 86 -176 92 -90 117 -104 160 -89 38 14 1357 1337
1364 1368 3 15 2 37 -4 51 -13 34 -1325 1342 -1358 1355 -16 5 -38 9 -49 7z"/>
</g>
</svg>
