<svg width="150" height="39" viewBox="0 0 150 39" fill="none" xmlns="http://www.w3.org/2000/svg">
  <path d="M149.269 23.5576L135.244 37.8881C133.675 39.4882 130.958 38.3822 130.958 36.1232V25.6754C130.958 22.5223 133.23 19.8868 136.227 19.3691H129.788C127.564 19.3691 126.44 16.6865 128.008 15.0864L142.034 0.755947C143.603 -0.844169 146.319 0.261795 146.319 2.52078V12.9686C146.319 16.1218 144.047 18.7573 141.05 19.2749H147.49C149.714 19.2749 150.838 21.9575 149.269 23.5576ZM49.6393 21.4868H35.4967C35.8246 24.1459 38.0958 25.746 41.2334 25.746H41.7251C44.5348 25.746 46.0802 24.8283 46.6187 23.7223H49.4987C48.9602 26.1225 46.4548 28.052 41.4909 28.052C36.2226 28.052 32.6401 25.3225 32.6401 20.6868C32.5231 16.4512 36.9485 13.6981 41.4909 13.7687C46.689 13.7687 49.6393 16.7101 49.6393 20.2162V21.4868ZM46.6656 19.322C46.6187 17.2983 44.5348 16.0747 41.7485 16.0747H41.2568C38.2831 16.0747 36.3397 17.3219 35.7075 19.322H46.6656ZM79.8444 14.0275H82.6542V21.228C82.6542 24.2165 83.895 25.7225 87.0792 25.7225H87.5712C90.4512 25.7225 92.9328 23.6988 92.9328 20.6162V14.0275H95.7426V27.7697H92.9328V25.4165C91.5282 27.0873 89.6784 28.052 86.8452 28.052C82.326 28.052 79.8444 25.7695 79.8444 21.981V14.0275ZM101.737 23.5105C101.924 24.9224 103.681 25.746 106.279 25.746H106.771C109.721 25.746 111.244 25.1342 111.244 24.0518C111.244 23.1811 110.564 22.7575 108.364 22.4281L104.804 22.0046C100.754 21.4633 99.2082 20.2633 99.2082 17.9572C99.2082 15.2041 101.807 13.7451 106.045 13.7451C110.939 13.7451 113.585 15.5335 113.866 18.2866H110.986C110.635 16.8748 109.042 16.0512 106.279 16.0512H105.788C103.306 16.0512 102.018 16.7101 102.018 17.6984C102.018 18.5455 102.463 18.9926 105.062 19.3691L108.855 19.8397C112.344 20.3574 114.053 21.6045 114.053 23.8165C114.053 26.4049 111.454 28.0285 106.514 28.0285C101.737 28.0285 99.0678 26.2872 98.8572 23.487H101.737V23.5105ZM66.7554 14.0275H69.5652V16.5924C70.1976 14.9923 71.2512 14.0275 74.2014 14.0275H77.409V16.663H73.6626C70.923 16.663 69.5652 17.9572 69.5652 20.7338V27.7697H66.7554V14.0275ZM63.4542 25.3695V27.6755H59.2159V27.652C55.1417 27.4167 52.9173 25.1813 52.9173 21.6045V20.9221V16.4041V14.051V9.58014H55.7271V14.0275H62.0022V16.3806H55.7271V20.828C55.7271 23.8165 56.9681 25.3225 60.1524 25.3225H60.6444H63.4542V25.3695ZM30.0177 27.5579L27.0674 27.5814L27.044 20.6868C27.044 17.8396 25.4986 16.1218 22.1738 16.1218H21.6586C18.4274 16.1453 16.484 18.2866 16.484 21.7222L16.5074 27.605L13.5571 27.6285L13.5337 20.7338C13.5337 17.9336 11.8478 16.1689 8.49954 16.1689H7.98444C4.72978 16.1924 2.97367 18.3337 2.97367 21.7928L2.99708 27.6755L0.0468295 27.6991L0 14.0746L2.95026 14.051V16.3336C4.16782 14.6393 6.1815 13.7451 8.92104 13.7451C12.0352 13.7216 14.4001 14.8276 15.5942 16.9689C16.8352 14.7569 19.364 13.6981 22.4548 13.6745C27.7231 13.651 29.9474 16.3336 29.9708 20.4986L30.0177 27.5579Z" fill="black"/>
</svg>
