<svg width="105" height="36" viewBox="0 0 105 36" fill="none" xmlns="http://www.w3.org/2000/svg">
<path d="M49.483 1.416L50.396 6.583C50.419 6.714 50.538 6.803 50.67 6.792C51.4238 6.72421 52.1822 6.72421 52.936 6.792C52.9996 6.79823 53.0633 6.78013 53.1141 6.74136C53.1649 6.70259 53.1992 6.64601 53.21 6.583L54.122 1.416C54.128 1.382 54.1269 1.34715 54.1189 1.31357C54.111 1.27999 54.0963 1.24838 54.0757 1.22068C54.0551 1.19298 54.0291 1.16977 53.9992 1.15245C53.9693 1.13514 53.9363 1.1241 53.902 1.12C52.5068 0.961588 51.0982 0.961588 49.703 1.12C49.6687 1.12396 49.6355 1.13492 49.6056 1.15219C49.5757 1.16945 49.5496 1.19267 49.529 1.22041C49.5084 1.24814 49.4936 1.2798 49.4857 1.31344C49.4778 1.34708 49.4769 1.38198 49.483 1.416ZM60.051 14.004C60.0969 14.004 60.1419 13.9916 60.1813 13.9681C60.2207 13.9445 60.253 13.9108 60.2747 13.8704C60.2965 13.8299 60.3069 13.7844 60.3048 13.7386C60.3027 13.6927 60.2883 13.6483 60.263 13.61C59.3309 12.2225 58.0715 11.0859 56.5961 10.3004C55.1206 9.51484 53.4745 9.10466 51.803 9.106C50.1316 9.10465 48.4856 9.51484 47.0104 10.3004C45.5351 11.0859 44.2759 12.2225 43.344 13.61C43.3187 13.6484 43.3042 13.6929 43.3022 13.7388C43.3002 13.7847 43.3106 13.8304 43.3325 13.8708C43.3544 13.9112 43.3868 13.945 43.4263 13.9684C43.4659 13.9919 43.511 14.0042 43.557 14.004H60.051ZM38.744 6.856L42.709 10.298C42.809 10.385 42.958 10.379 43.053 10.287C43.5957 9.76044 44.1848 9.28384 44.813 8.863C44.8666 8.8277 44.9048 8.77351 44.9202 8.71123C44.9356 8.64896 44.927 8.58318 44.896 8.527L42.35 3.938C42.3333 3.90769 42.3105 3.88113 42.2832 3.85993C42.2558 3.83874 42.2244 3.82336 42.1909 3.81475C42.1573 3.80613 42.1224 3.80446 42.0882 3.80983C42.054 3.81521 42.0213 3.82751 41.992 3.846C40.8079 4.60007 39.7129 5.48571 38.728 6.486C38.7036 6.51066 38.6846 6.54009 38.6722 6.57244C38.6597 6.60478 38.654 6.63935 38.6555 6.67399C38.657 6.70862 38.6657 6.74257 38.6809 6.77372C38.6961 6.80486 38.7176 6.83353 38.744 6.856ZM61.258 3.94L58.712 8.529C58.6815 8.58501 58.673 8.65041 58.6881 8.71238C58.7033 8.77435 58.741 8.82842 58.794 8.864C59.4219 9.28524 60.011 9.76181 60.554 10.288C60.5998 10.3326 60.6607 10.3584 60.7246 10.3602C60.7884 10.3621 60.8507 10.3399 60.899 10.298L64.864 6.857C64.8903 6.83436 64.9117 6.80657 64.9268 6.77535C64.942 6.74413 64.9506 6.71013 64.9521 6.67546C64.9536 6.64079 64.9479 6.60618 64.9355 6.57377C64.9232 6.54135 64.9042 6.51182 64.88 6.487C63.8957 5.48625 62.8007 4.60088 61.616 3.848C61.5867 3.82955 61.5539 3.8173 61.5196 3.812C61.4854 3.8067 61.4504 3.80846 61.4169 3.81717C61.3834 3.82588 61.352 3.84136 61.3247 3.86265C61.2973 3.88395 61.2746 3.90961 61.258 3.94ZM88.106 16.67C86.884 16.67 85.561 17.246 84.624 18.434C84.6038 18.4595 84.5778 18.4798 84.5482 18.4932C84.5185 18.5066 84.4861 18.5128 84.4536 18.5111C84.4211 18.5095 84.3895 18.5 84.3614 18.4837C84.3333 18.4673 84.3095 18.4444 84.292 18.417C83.544 17.262 82.437 16.67 81.338 16.67C80.238 16.67 78.968 17.462 78.238 18.434C78.162 18.535 77.999 18.464 78.022 18.338L78.217 17.232C78.2233 17.1956 78.2215 17.1582 78.2118 17.1225C78.2021 17.0868 78.1848 17.0537 78.161 17.0254C78.1372 16.9971 78.1075 16.9744 78.074 16.9588C78.0405 16.9432 78.004 16.935 77.967 16.935H74.573C74.5056 16.935 74.441 16.9618 74.3934 17.0094C74.3458 17.057 74.319 17.1216 74.319 17.189V27.99C74.319 28.13 74.432 28.244 74.572 28.244H77.884C78.024 28.244 78.138 28.13 78.138 27.99V21.767C78.138 20.728 78.832 20.022 79.713 20.022C80.593 20.022 81.275 20.715 81.275 21.767V27.991C81.275 28.131 81.389 28.244 81.529 28.244H84.839C84.979 28.244 85.093 28.13 85.093 27.99V21.767C85.093 20.728 85.788 20.022 86.668 20.022C87.549 20.022 88.23 20.715 88.23 21.767V27.991C88.23 28.131 88.344 28.244 88.484 28.244H91.794C91.934 28.244 92.049 28.13 92.049 27.99V21.031C92.049 18.198 90.127 16.67 88.106 16.67ZM72.567 10.975H69.189C69.1307 10.975 69.0747 10.9982 69.0334 11.0394C68.9922 11.0807 68.969 11.1367 68.969 11.195V18.333C68.9692 18.365 68.9592 18.3963 68.9404 18.4222C68.9217 18.4481 68.8951 18.4673 68.8645 18.4771C68.834 18.4868 68.8012 18.4865 68.7709 18.4762C68.7406 18.466 68.7143 18.4463 68.696 18.42C67.986 17.426 66.724 16.66 65.31 16.67C62.21 16.689 60.153 19.533 60.153 22.59C60.153 25.645 62.215 28.341 65.31 28.502C66.93 28.585 68.201 27.621 68.956 26.625C69.012 26.552 69.128 26.602 69.112 26.694L68.838 28.243H72.567C72.6253 28.243 72.6813 28.2198 72.7226 28.1786C72.7638 28.1373 72.787 28.0813 72.787 28.023V11.195C72.787 11.1367 72.7638 11.0807 72.7226 11.0394C72.6813 10.9982 72.6253 10.975 72.567 10.975ZM66.272 25.15C65.935 25.1508 65.6011 25.085 65.2896 24.9565C64.978 24.8279 64.6949 24.6391 64.4565 24.4009C64.2181 24.1627 64.0291 23.8797 63.9003 23.5683C63.7715 23.2568 63.7055 22.923 63.706 22.586C63.7055 22.249 63.7715 21.9152 63.9003 21.6037C64.0291 21.2923 64.2181 21.0093 64.4565 20.7711C64.6949 20.5329 64.978 20.3441 65.2896 20.2155C65.6011 20.087 65.935 20.0212 66.272 20.022C66.6091 20.0211 66.9431 20.0867 67.2547 20.2152C67.5664 20.3437 67.8496 20.5325 68.0881 20.7707C68.3266 21.009 68.5158 21.292 68.6446 21.6035C68.7735 21.915 68.8395 22.2489 68.839 22.586C68.8395 22.9231 68.7735 23.257 68.6446 23.5685C68.5158 23.88 68.3266 24.163 68.0881 24.4013C67.8496 24.6395 67.5664 24.8283 67.2547 24.9568C66.9431 25.0853 66.6091 25.1509 66.272 25.15Z" fill="black"/>
<path fill-rule="evenodd" clip-rule="evenodd" d="M103.264 14.004L103.877 15.804L104.486 14.004H104.897V16.132H104.622V14.876C104.622 14.832 104.622 14.761 104.625 14.66C104.628 14.56 104.628 14.452 104.628 14.337L104.019 16.132H103.732L103.118 14.337V14.402L103.122 14.642C103.125 14.748 103.125 14.826 103.125 14.877V16.133H102.849V14.005H103.264V14.004ZM102.591 14.004V14.258H101.873V16.132H101.581V14.258H100.862V14.004H102.591ZM19.668 16.67C16.298 16.67 13.572 19.068 13.572 22.585C13.572 26.102 16.298 28.501 19.668 28.501C23.038 28.501 25.812 26.078 25.812 22.585C25.812 19.092 23.049 16.67 19.668 16.67ZM19.692 25.149C19.355 25.1498 19.0211 25.084 18.7096 24.9555C18.398 24.8269 18.1149 24.6381 17.8765 24.3999C17.6381 24.1617 17.4491 23.8787 17.3203 23.5673C17.1915 23.2558 17.1255 22.922 17.126 22.585C17.1255 22.248 17.1915 21.9142 17.3203 21.6027C17.4491 21.2913 17.6381 21.0083 17.8765 20.7701C18.1149 20.5319 18.398 20.3431 18.7096 20.2145C19.0211 20.086 19.355 20.0202 19.692 20.021C20.0291 20.0201 20.3631 20.0857 20.6747 20.2142C20.9864 20.3427 21.2696 20.5315 21.5081 20.7697C21.7466 21.008 21.9358 21.291 22.0646 21.6025C22.1935 21.914 22.2595 22.2479 22.259 22.585C22.2595 22.9221 22.1935 23.256 22.0646 23.5675C21.9358 23.879 21.7466 24.162 21.5081 24.4003C21.2696 24.6385 20.9864 24.8273 20.6747 24.9558C20.3631 25.0843 20.0291 25.1499 19.692 25.149Z" fill="black"/>
<path d="M12.635 17.192C12.635 17.1222 12.6073 17.0553 12.558 17.006C12.5086 16.9567 12.4418 16.929 12.372 16.929H8.989C8.95203 16.929 8.91552 16.9372 8.88202 16.9528C8.84851 16.9684 8.81882 16.9911 8.79501 17.0194C8.77121 17.0477 8.75386 17.0808 8.74419 17.1165C8.73451 17.1522 8.73274 17.1896 8.739 17.226L8.932 18.321C8.955 18.445 8.796 18.517 8.718 18.419C8.034 17.555 6.771 16.593 5.158 16.669C2.06 16.814 0 19.526 0 22.58C0 25.635 2.058 28.499 5.158 28.5C5.83588 28.4985 6.50312 28.3314 7.10175 28.0133C7.70039 27.6953 8.2123 27.2359 8.593 26.675C8.66 26.575 8.817 26.622 8.817 26.743V28.698C8.817 30.308 7.796 31.261 6.378 31.261C5.286 31.261 4.247 30.586 3.891 29.341C3.8794 29.3009 3.85969 29.2636 3.83308 29.2314C3.80647 29.1992 3.77354 29.1728 3.73632 29.1539C3.6991 29.1349 3.65838 29.1238 3.6167 29.1213C3.57502 29.1187 3.53326 29.1248 3.494 29.139L0.54 30.213C0.480178 30.2352 0.431208 30.2796 0.403272 30.3369C0.375335 30.3943 0.370582 30.4602 0.39 30.521C1.188 33.132 3.633 34.679 6.354 34.679C9.808 34.679 12.635 32.403 12.635 28.698V17.19V17.192ZM6.12 25.149C5.78289 25.1499 5.44892 25.0842 5.13726 24.9558C4.82559 24.8273 4.54237 24.6385 4.30386 24.4003C4.06535 24.162 3.87624 23.879 3.74738 23.5675C3.61853 23.256 3.55247 22.9221 3.553 22.585C3.55247 22.2479 3.61853 21.914 3.74738 21.6025C3.87624 21.291 4.06535 21.008 4.30386 20.7697C4.54237 20.5315 4.82559 20.3427 5.13726 20.2142C5.44892 20.0857 5.78289 20.0201 6.12 20.021C6.45703 20.0202 6.79089 20.086 7.10244 20.2145C7.41399 20.3431 7.69708 20.5319 7.93549 20.7701C8.1739 21.0083 8.36292 21.2913 8.49171 21.6027C8.6205 21.9142 8.68653 22.248 8.686 22.585C8.68666 22.9221 8.62073 23.256 8.492 23.5676C8.36327 23.8792 8.17426 24.1622 7.93585 24.4005C7.69743 24.6389 7.41428 24.8278 7.10267 24.9564C6.79106 25.085 6.45711 25.1498 6.12 25.149ZM39.63 28.506C40.751 28.506 41.98 27.722 42.707 26.748C42.783 26.646 42.946 26.718 42.923 26.844L42.728 27.951C42.7214 27.9876 42.7229 28.0252 42.7325 28.0612C42.7421 28.0971 42.7595 28.1305 42.7835 28.159C42.8074 28.1874 42.8374 28.2103 42.8712 28.2258C42.905 28.2414 42.9418 28.2493 42.979 28.249L46.371 28.244C46.511 28.244 46.625 28.13 46.625 27.99V17.186C46.625 17.1526 46.6184 17.1196 46.6057 17.0888C46.5929 17.058 46.5742 17.03 46.5506 17.0064C46.527 16.9828 46.499 16.9641 46.4682 16.9513C46.4374 16.9386 46.4044 16.932 46.371 16.932H43.061C43.0276 16.9319 42.9944 16.9383 42.9635 16.951C42.9326 16.9637 42.9044 16.9824 42.8807 17.006C42.8571 17.0296 42.8383 17.0577 42.8254 17.0886C42.8126 17.1194 42.806 17.1526 42.806 17.186V23.254C42.806 24.355 42.05 25.134 41.095 25.134C40.14 25.134 39.383 24.38 39.383 23.254V17.185C39.3827 17.1178 39.3559 17.0535 39.3083 17.006C39.2606 16.9586 39.1962 16.932 39.129 16.932H35.819C35.7856 16.932 35.7526 16.9386 35.7218 16.9513C35.691 16.9641 35.663 16.9828 35.6394 17.0064C35.6158 17.03 35.5971 17.058 35.5843 17.0888C35.5716 17.1196 35.565 17.1526 35.565 17.186V24.106C35.565 27.001 37.524 28.504 39.632 28.504L39.63 28.506Z" fill="black"/>
<path fill-rule="evenodd" clip-rule="evenodd" d="M101.514 24.45C101.456 24.4296 101.393 24.4304 101.336 24.4524C101.279 24.4745 101.232 24.5162 101.203 24.57C100.8 25.274 99.939 25.643 99.107 25.643C97.942 25.643 96.95 24.836 96.579 23.641H104.692C104.754 23.6413 104.813 23.6189 104.86 23.5782C104.906 23.5375 104.936 23.4812 104.944 23.42C104.981 23.15 105 22.871 105 22.586C105 18.966 102.135 16.671 99.083 16.671C95.713 16.671 92.986 19.069 92.986 22.586C92.986 26.104 95.713 28.502 99.083 28.502C101.278 28.502 103.213 27.48 104.3 25.807C104.322 25.7736 104.335 25.7358 104.34 25.6964C104.345 25.6569 104.341 25.6169 104.328 25.5793C104.315 25.5416 104.294 25.5074 104.266 25.4791C104.238 25.4508 104.204 25.4293 104.167 25.416L101.514 24.45ZM99.106 19.436C100.33 19.436 101.201 20.186 101.58 21.276H96.633C97.011 20.186 97.881 19.436 99.106 19.436Z" fill="black"/>
<path d="M55.148 16.675C54.027 16.675 52.798 17.459 52.071 18.432C51.995 18.534 51.832 18.462 51.855 18.336L52.05 17.229C52.0565 17.1925 52.0548 17.1549 52.0451 17.1191C52.0355 17.0833 52.018 17.05 51.9941 17.0217C51.9701 16.9933 51.9403 16.9706 51.9065 16.9551C51.8728 16.9396 51.8361 16.9317 51.799 16.932L48.407 16.937C48.3396 16.937 48.275 16.9638 48.2274 17.0114C48.1798 17.059 48.153 17.1236 48.153 17.191V27.995C48.153 28.135 48.267 28.249 48.408 28.249H51.718C51.858 28.249 51.972 28.135 51.972 27.995V21.925C51.972 20.825 52.728 20.045 53.683 20.045C54.638 20.045 55.395 20.8 55.395 21.925V27.995C55.395 28.135 55.508 28.249 55.649 28.249H58.959C59.099 28.249 59.213 28.135 59.213 27.995V21.074C59.213 18.179 57.254 16.677 55.147 16.677L55.148 16.675ZM34.29 16.933H32.064C32.0439 16.9331 32.0239 16.9293 32.0053 16.9216C31.9867 16.914 31.9698 16.9027 31.9555 16.8885C31.9413 16.8742 31.93 16.8573 31.9224 16.8387C31.9147 16.8201 31.9109 16.8001 31.911 16.78V16.024C31.911 14.592 33.181 13.631 34.617 14.094C34.6513 14.1048 34.6875 14.1081 34.7233 14.1037C34.759 14.0994 34.7933 14.0874 34.824 14.0686C34.8547 14.0499 34.881 14.0248 34.9012 13.995C34.9214 13.9652 34.935 13.9315 34.941 13.896L35.468 10.934C35.4794 10.8695 35.4655 10.803 35.4292 10.7485C35.3929 10.6939 35.3369 10.6554 35.273 10.641C31.579 9.78599 28.095 12.361 28.095 16.346V16.78C28.0951 16.8002 28.0913 16.8202 28.0836 16.8389C28.076 16.8575 28.0648 16.8745 28.0505 16.8888C28.0363 16.9031 28.0194 16.9145 28.0008 16.9223C27.9822 16.93 27.9622 16.934 27.942 16.934H26.245C26.2117 16.934 26.1786 16.9406 26.1478 16.9533C26.117 16.9661 26.089 16.9848 26.0654 17.0084C26.0418 17.032 26.0231 17.06 26.0103 17.0908C25.9976 17.1216 25.991 17.1546 25.991 17.188V19.77C25.9907 19.8033 25.9971 19.8363 26.0097 19.8671C26.0223 19.8979 26.041 19.9259 26.0645 19.9495C26.0881 19.973 26.1161 19.9917 26.1469 20.0043C26.1777 20.0169 26.2107 20.0233 26.244 20.023H27.941C28.026 20.023 28.094 20.092 28.094 20.176V27.986C28.094 28.126 28.208 28.24 28.348 28.24H31.658C31.798 28.24 31.912 28.126 31.912 27.986V20.176C31.912 20.092 31.981 20.024 32.065 20.024H34.291C34.431 20.024 34.545 19.91 34.545 19.769V17.188C34.545 17.1206 34.5182 17.056 34.4706 17.0084C34.423 16.9608 34.3584 16.934 34.291 16.934L34.29 16.933Z" fill="black"/>
</svg>
