<svg width="185" height="54" viewBox="0 0 185 54" fill="none" xmlns="http://www.w3.org/2000/svg"><g clip-path="url(#clipLogo)"><path d="M47.3475 44.7749H6.6521C7.6814 45.9567 8.806 47.0432 10.0259 48.0153H26.285C26.4565 48.1487 26.6281 48.2821 26.7997 48.4156H59.7372C60.2899 47.9772 60.8427 47.5388 61.3574 47.0622H45.0792C45.8798 46.357 46.6422 45.5945 47.3475 44.7749Z" fill="black"></path><path d="M51.1218 39.1708H2.87827C3.39291 40.2001 3.98381 41.1912 4.63188 42.1443H20.891C21.0435 42.373 21.196 42.6018 21.3675 42.8114H65.1698C65.5511 42.2777 65.9132 41.744 66.2563 41.1912H49.9972C50.3975 40.5432 50.7787 39.876 51.1218 39.1708Z" fill="black"></path><path d="M53.2185 33.5859H0.800568C1.0293 34.5009 1.31522 35.4158 1.62019 36.2926H17.8793C17.9937 36.6166 18.108 36.9216 18.2414 37.2457H68.2768C68.5245 36.6357 68.7533 35.9876 68.9629 35.3586H52.7039C52.8945 34.7487 53.066 34.1768 53.2185 33.5859Z" fill="black"></path><path d="M54 27.9819H0C0.0381221 28.8016 0.0953053 29.6212 0.190611 30.4217H16.4497C16.5069 30.822 16.5641 31.2414 16.6213 31.6417H69.8588C69.9732 30.9364 70.0685 30.2121 70.1447 29.4878H53.9047C53.9428 28.9731 53.9809 28.4775 54 27.9819Z" fill="black"></path><path d="M26.8379 1.06754H34.5957H35.6822C33.4902 1.71562 31.3935 2.63055 29.4683 3.77421H57.0497C53.0468 1.39158 48.3578 0.0191831 43.3638 0.00012207H43.3066C43.2876 0.00012207 43.2685 0.00012207 43.2685 0.00012207C43.2494 0.00012207 43.2304 0.00012207 43.2304 0.00012207H27.0666C27.0475 0.00012207 27.0475 0.00012207 27.0285 0.00012207C27.0094 0.00012207 27.0094 0.00012207 26.9904 0.00012207H26.8569C24.2837 0.0191831 21.8057 0.381344 19.4422 1.0866H26.8379V1.06754Z" fill="black"></path><path d="M22.9115 9.2255H63.6069C62.5776 8.04372 61.453 6.95724 60.2331 5.98512H43.974C43.8025 5.85169 43.6309 5.71827 43.4594 5.58484H10.5409C9.98814 6.02324 9.43536 6.46165 8.92072 6.93817H25.1798C24.3792 7.66249 23.6168 8.42494 22.9115 9.2255Z" fill="black"></path><path d="M19.1372 14.8295H67.3808C66.8661 13.8002 66.2752 12.809 65.6272 11.856H49.3681C49.2156 11.6272 49.0631 11.3985 48.8915 11.1888H5.10827C4.72705 11.7226 4.36489 12.2563 4.02179 12.809H20.2809C19.8615 13.4571 19.4803 14.1433 19.1372 14.8295Z" fill="black"></path><path d="M17.0408 20.4335H69.4587C69.23 19.5186 68.9441 18.6037 68.6391 17.7269H52.38C52.2657 17.4028 52.1513 17.0978 52.0179 16.7738H1.98255C1.73476 17.3838 1.50603 18.0318 1.29636 18.6608H17.5364C17.3648 19.2517 17.1933 19.8426 17.0408 20.4335Z" fill="black"></path><path d="M16.2592 26.0375H70.2402C70.2021 25.2179 70.1449 24.3983 70.0496 23.5977H53.7905C53.7333 23.1974 53.6761 22.7781 53.6189 22.3778H0.381375C0.267009 23.0831 0.171703 23.8074 0.095459 24.5317H16.3355C16.2974 25.0273 16.2783 25.5229 16.2592 26.0375Z" fill="black"></path><path d="M35.6631 52.9324H34.5767C36.7687 52.2843 38.8654 51.3694 40.7906 50.2257H13.2092C17.193 52.6083 21.8629 53.9807 26.8379 53.9998H26.9904H27.0094H27.0285H43.2304H43.2494H43.2685H43.3447C45.9371 53.9998 48.4531 53.6186 50.8358 52.9133H35.6631V52.9324Z" fill="black"></path><path d="M121.381 21.6729V24.837H117.931V33.3383C117.931 34.1388 118.064 34.6725 118.331 34.9394C118.598 35.2063 119.132 35.3397 119.932 35.3397C120.199 35.3397 120.447 35.3206 120.695 35.3016C120.943 35.2825 121.171 35.2444 121.4 35.2062V38.866C121 38.9232 120.561 38.9803 120.066 38.9994C119.57 39.0185 119.094 39.0375 118.636 39.0375C117.912 39.0375 117.207 38.9803 116.559 38.885C115.91 38.7897 115.339 38.5991 114.824 38.2941C114.328 38.0082 113.928 37.5889 113.642 37.0742C113.356 36.5405 113.204 35.8543 113.204 34.9775V24.8561H110.345V21.692H113.204V17.3842H117.912V21.692H121.381V21.6729Z" fill="black"></path><path d="M146.027 15.1349V23.7696H146.084C146.656 22.8927 147.437 22.2447 148.428 21.8253C149.42 21.425 150.43 21.2154 151.497 21.2154C152.355 21.2154 153.213 21.3869 154.051 21.7491C154.89 22.1112 155.652 22.6449 156.32 23.3693C156.987 24.0936 157.54 25.0276 157.959 26.1712C158.378 27.3149 158.588 28.6682 158.588 30.2313C158.588 31.7943 158.378 33.1667 157.959 34.2913C157.54 35.4349 156.987 36.3689 156.32 37.0932C155.652 37.8176 154.89 38.3703 154.051 38.7134C153.213 39.0756 152.355 39.2471 151.497 39.2471C150.239 39.2471 149.115 39.0565 148.104 38.6562C147.113 38.256 146.351 37.5888 145.855 36.6358H145.798V38.8278H141.319V15.1349H146.027ZM153.67 28.1917C153.518 27.5246 153.27 26.9337 152.946 26.4381C152.622 25.9235 152.202 25.5232 151.707 25.2182C151.211 24.9132 150.601 24.7798 149.896 24.7798C149.21 24.7798 148.619 24.9323 148.104 25.2182C147.59 25.5232 147.17 25.9235 146.846 26.4381C146.522 26.9528 146.274 27.5246 146.122 28.1917C145.969 28.8589 145.893 29.5451 145.893 30.2884C145.893 30.9937 145.969 31.6799 146.122 32.347C146.274 33.0142 146.522 33.6051 146.846 34.1007C147.17 34.6153 147.59 35.0156 148.104 35.3206C148.619 35.6255 149.21 35.778 149.896 35.778C150.601 35.778 151.211 35.6255 151.707 35.3206C152.202 35.0156 152.622 34.6153 152.946 34.1007C153.27 33.586 153.518 33.0142 153.67 32.347C153.823 31.6799 153.899 30.9937 153.899 30.2884C153.899 29.5451 153.823 28.8589 153.67 28.1917Z" fill="black"></path><path d="M165.336 15.1349V38.8469H160.628V15.1349H165.336Z" fill="black"></path><path d="M172.998 34.7297C173.703 35.4159 174.733 35.7591 176.048 35.7591C177.001 35.7591 177.82 35.5303 178.507 35.0538C179.193 34.5773 179.612 34.0817 179.765 33.548H183.92C183.253 35.6066 182.243 37.0743 180.87 37.9701C179.498 38.8469 177.839 39.3044 175.895 39.3044C174.542 39.3044 173.322 39.0947 172.236 38.6563C171.149 38.2179 170.234 37.608 169.472 36.8074C168.709 36.0068 168.137 35.0538 167.718 33.9482C167.318 32.8427 167.108 31.6228 167.108 30.2885C167.108 29.0114 167.318 27.8106 167.737 26.705C168.156 25.5995 168.747 24.6464 169.529 23.8268C170.31 23.0263 171.225 22.3782 172.293 21.9207C173.36 21.4633 174.561 21.2155 175.857 21.2155C177.325 21.2155 178.583 21.5014 179.669 22.0541C180.756 22.626 181.652 23.3694 182.338 24.3224C183.024 25.2755 183.539 26.3619 183.844 27.5819C184.149 28.8018 184.263 30.0789 184.168 31.3941H171.778C171.911 32.938 172.293 34.0435 172.998 34.7297ZM178.335 25.6948C177.763 25.0849 176.905 24.7608 175.762 24.7608C175.018 24.7608 174.389 24.8942 173.894 25.142C173.398 25.3898 172.998 25.7139 172.693 26.0951C172.388 26.4763 172.178 26.8766 172.064 27.2959C171.95 27.7153 171.873 28.0965 171.854 28.4205H179.517C179.288 27.2197 178.888 26.3238 178.335 25.6948Z" fill="black"></path><path d="M138.498 35.0347V28.5158V26.1142C138.498 25.0658 138.269 24.2462 137.792 23.5981C137.335 22.9691 136.725 22.4735 136.001 22.1113C135.276 21.7682 134.457 21.5204 133.58 21.4061C132.703 21.2917 131.826 21.2155 130.949 21.2155C129.996 21.2155 129.043 21.3108 128.109 21.5014C127.175 21.692 126.318 21.997 125.574 22.4544C124.831 22.8928 124.202 23.4837 123.706 24.208C123.211 24.9324 122.944 25.8664 122.868 26.9719H127.576C127.671 26.0379 127.976 25.3708 128.51 24.9705C129.043 24.5702 129.768 24.3796 130.702 24.3796C131.121 24.3796 131.521 24.3987 131.883 24.4558C132.246 24.513 132.57 24.6274 132.856 24.7799C133.122 24.9514 133.351 25.1802 133.523 25.4851C133.694 25.7901 133.771 26.1904 133.771 26.705C133.79 27.2006 133.656 27.5628 133.332 27.8106C133.027 28.0584 132.608 28.2681 132.074 28.3824C131.54 28.5158 130.93 28.6112 130.244 28.6874C129.558 28.7636 128.853 28.8399 128.148 28.9542C127.442 29.0686 126.737 29.2211 126.032 29.3927C125.326 29.5833 124.717 29.8692 124.164 30.2313C123.63 30.6126 123.173 31.1082 122.829 31.7372C122.486 32.3662 122.315 33.1667 122.315 34.1389C122.315 35.0157 122.467 35.7781 122.772 36.4262C123.077 37.0743 123.478 37.608 124.011 38.0273C124.545 38.4467 125.155 38.7516 125.879 38.9613C126.585 39.1519 127.347 39.2663 128.167 39.2663C129.234 39.2663 130.263 39.1138 131.293 38.8088C132.303 38.5038 133.199 37.9511 133.942 37.1886C133.961 37.4746 133.999 37.7605 134.056 38.0273C134.114 38.2942 134.19 38.5801 134.266 38.8469H138.44V35.0347H138.498ZM133.771 32.2137C133.771 32.4805 133.751 32.8236 133.694 33.2811C133.637 33.7195 133.485 34.1579 133.237 34.5963C132.989 35.0347 132.608 35.3969 132.112 35.7019C131.598 36.0068 130.892 36.1593 129.958 36.1593C129.577 36.1593 129.215 36.1212 128.872 36.064C128.51 36.0068 128.205 35.8925 127.938 35.7209C127.671 35.5494 127.461 35.3206 127.309 35.0347C127.156 34.7488 127.08 34.3867 127.08 33.9673C127.08 33.5289 127.156 33.1667 127.309 32.8808C127.461 32.5949 127.671 32.3471 127.919 32.1756C128.167 31.985 128.472 31.8325 128.815 31.7181C129.158 31.6037 129.501 31.5275 129.863 31.4513C130.244 31.3941 130.606 31.3369 130.988 31.2797C131.369 31.2416 131.731 31.1844 132.074 31.1082C132.417 31.051 132.741 30.9557 133.046 30.8604C133.351 30.7651 133.599 30.6316 133.79 30.441V32.2137H133.771Z" fill="black"></path><path d="M107.333 26.4951C106.551 25.9804 105.77 25.6183 104.988 25.3896C104.207 25.1608 103.578 24.9893 103.139 24.913C101.653 24.5318 100.452 24.2268 99.5369 23.979C98.622 23.7312 97.8976 23.4834 97.383 23.2547C96.8683 23.0069 96.5062 22.7401 96.3346 22.4541C96.1631 22.1682 96.0678 21.787 96.0678 21.3295C96.0678 20.8149 96.1821 20.3956 96.3918 20.0715C96.6205 19.7475 96.8874 19.4616 97.2305 19.2328C97.5736 19.0041 97.9548 18.8516 98.3742 18.7754C98.7935 18.6801 99.2128 18.6419 99.6322 18.6419C100.28 18.6419 100.871 18.6991 101.405 18.8135C101.939 18.9279 102.434 19.1185 102.854 19.3853C103.273 19.6522 103.616 20.0143 103.864 20.4718C104.054 20.8149 104.15 21.2342 104.226 21.6917H109.296C109.239 20.5671 109.01 19.5569 108.572 18.7182C108.057 17.7651 107.352 16.9646 106.456 16.3355C105.579 15.7256 104.55 15.2681 103.425 14.9822C102.301 14.6963 101.1 14.5629 99.8609 14.5629C98.7935 14.5629 97.7451 14.7154 96.6777 15.0013C95.6103 15.2872 94.6573 15.7256 93.8186 16.3355C92.9799 16.9264 92.2937 17.6889 91.779 18.5848C91.2644 19.4806 90.9975 20.529 90.9975 21.7489C90.9975 22.8354 91.2072 23.7503 91.6075 24.5127C92.0078 25.2752 92.5605 25.9233 93.2086 26.4189C93.8757 26.9335 94.6191 27.3528 95.4578 27.6578C96.2965 27.9819 97.1543 28.2487 98.0501 28.4774C98.9079 28.7252 99.7656 28.9349 100.604 29.1446C101.443 29.3352 102.205 29.583 102.854 29.8498C103.521 30.1167 104.054 30.4407 104.455 30.841C104.855 31.2413 105.065 31.756 105.065 32.404C105.065 32.9949 104.912 33.4905 104.607 33.8908C104.302 34.272 103.902 34.577 103.444 34.8057C102.987 35.0345 102.491 35.1679 101.958 35.2632C101.424 35.3394 100.928 35.3776 100.471 35.3776C99.7847 35.3776 99.1175 35.3013 98.4885 35.1298C97.8405 34.9582 97.2877 34.7104 96.8112 34.3673C96.3346 34.0242 95.9534 33.5667 95.6675 33.014C95.3816 32.4612 95.2291 31.7941 95.2291 30.9935H90.1779C90.1588 32.4612 90.4257 33.7192 90.9785 34.7867C91.5312 35.8541 92.2746 36.7309 93.2277 37.4171C94.1617 38.1033 95.2481 38.5989 96.4871 38.9229C97.707 39.2469 98.9841 39.3994 100.28 39.3994C101.9 39.3994 103.311 39.2088 104.55 38.8276C105.77 38.4464 106.799 37.9317 107.638 37.2455C108.477 36.5784 109.086 35.7588 109.506 34.8438C109.925 33.9099 110.135 32.8996 110.135 31.8322C110.135 30.4979 109.849 29.4114 109.296 28.5537C108.782 27.6769 108.114 27.0097 107.333 26.4951Z" fill="black"></path></g><defs><clipPath id="clipLogo"><rect width="184.201" height="54" fill="white"></rect></clipPath></defs></svg>